<svg height="800" width="800" xmlns="http://www.w3.org/2000/svg" viewBox="0 0 512 512" xml:space="preserve">
  <path d="M479.548 265.753a27.28 27.28 0 0 1 0-19.522l19.468-51.108c4.6-12.065.162-25.666-10.63-32.714l-45.797-29.904a27.44 27.44 0 0 1-11.471-15.801l-14.296-52.799c-3.366-12.443-14.96-20.865-27.828-20.224l-54.636 2.732a27.47 27.47 0 0 1-18.564-6.036L273.2 6.073c-10.035-8.097-24.361-8.097-34.404 0l-42.594 34.304a27.48 27.48 0 0 1-18.572 6.036l-54.629-2.732c-12.868-.64-24.462 7.781-27.827 20.224l-14.288 52.799a27.48 27.48 0 0 1-11.478 15.801L23.61 162.408c-10.791 7.048-15.222 20.664-10.629 32.714l19.476 51.116a27.35 27.35 0 0 1 0 19.521l-19.476 51.116c-4.593 12.042-.162 25.666 10.629 32.714l45.798 29.912a27.35 27.35 0 0 1 11.478 15.785l14.288 52.799c3.366 12.451 14.96 20.865 27.827 20.224l54.629-2.717a27.38 27.38 0 0 1 18.572 6.021l42.594 34.319c10.043 8.09 24.369 8.09 34.396 0l42.602-34.319a27.37 27.37 0 0 1 18.564-6.021l54.636 2.717c12.868.641 24.462-7.773 27.828-20.224l14.296-52.799a27.3 27.3 0 0 1 11.471-15.785l45.797-29.912c10.792-7.048 15.23-20.672 10.622-32.714zm-190.77 103.374c0 10.451-8.476 18.943-18.927 18.943h-27.704c-10.452 0-18.935-8.492-18.935-18.943v-28.916c0-10.452 8.483-18.943 18.935-18.943h27.704c10.451 0 18.927 8.491 18.927 18.943zm0-100.179c0 10.452-8.476 18.928-18.927 18.928h-27.704c-10.452 0-18.935-8.476-18.935-18.928V142.879c0-10.467 8.483-18.943 18.935-18.943h27.704c10.451 0 18.927 8.476 18.927 18.943z"
        style="fill:currentColor"/>
</svg>
