<svg viewBox="0 0 128 128" xmlns="http://www.w3.org/2000/svg" xml:space="preserve"
     style="fill-rule:evenodd;clip-rule:evenodd;stroke-linejoin:round;stroke-miterlimit:2">
  <path style="fill:none" d="M0 0h128v128H0z"/>
    <g clip-path="url(#a)">
    <path d="M71.207 91.965H56.793v21.622c0 7.906-6.508 14.414-14.414 14.414h-28.83c-7.905 0-14.413-6.508-14.413-14.414V52.325c0-4.533 2.14-8.814 5.765-11.531l50.45-37.838a14.414 14.414 0 0 1 17.298 0l50.45 37.838a14.43 14.43 0 0 1 5.766 11.531v61.262c0 7.906-6.508 14.414-14.414 14.414H85.62c-7.905 0-14.414-6.508-14.414-14.414zM13.55 52.325v61.262h28.829V91.965c0-7.906 6.508-14.414 14.414-14.414h14.414c7.907 0 14.415 6.508 14.415 14.414v21.622h28.829V52.325L64 14.488z"
          fill="currentColor"/>
  </g>
</svg>
