<svg width="100%" height="100%" viewBox="0 0 1080 1080" version="1.1" xmlns="http://www.w3.org/2000/svg" xmlns:xlink="http://www.w3.org/1999/xlink" xml:space="preserve" style="fill-rule:evenodd;clip-rule:evenodd;stroke-linejoin:round;stroke-miterlimit:1.5;">

        <g id="Circle" transform="matrix(1.641026,0,0,1.641026,787.897436,-346.153846)">
            <circle cx="100" cy="540" r="78" class="melee"/>
            <path d="M100,462C143.049,462 178,496.951 178,540C178,583.049 143.049,618 100,618C56.951,618 22,583.049 22,540C22,496.951 56.951,462 100,462ZM100,467.078C59.753,467.078 27.078,499.753 27.078,540C27.078,580.247 59.753,612.922 100,612.922C140.247,612.922 172.922,580.247 172.922,540C172.922,499.753 140.247,467.078 100,467.078Z"/>
        </g>
        <g id="Text" transform="matrix(1,0,0,1,531,0)">
            <g transform="matrix(62.5,0,0,62.5,518.03064,563.4375)">
            </g>
            <text x="323.969px" y="563.438px" style="font-family:'Roboto-Bold', 'Roboto';font-weight:700;font-size:62.5px;">MELEE</text>
        </g>
        <g id="Circle1" transform="matrix(1.641026,0,0,1.641026,-36.102564,-346.153846)">
            <circle cx="100" cy="540" r="78" class="range"/>
            <path d="M100,462C143.049,462 178,496.951 178,540C178,583.049 143.049,618 100,618C56.951,618 22,583.049 22,540C22,496.951 56.951,462 100,462ZM100,467.078C59.753,467.078 27.078,499.753 27.078,540C27.078,580.247 59.753,612.922 100,612.922C140.247,612.922 172.922,580.247 172.922,540C172.922,499.753 140.247,467.078 100,467.078Z"/>
        </g>
        <g id="Text1" transform="matrix(1,0,0,1,-293,0)">
            <g transform="matrix(62.5,0,0,62.5,522.898193,563.4375)">
            </g>
            <text x="319.102px" y="563.438px" style="font-family:'Roboto-Bold', 'Roboto';font-weight:700;font-size:62.5px;">RANGE</text>
        </g>
        <g id="Circle2" transform="matrix(1.641026,0,0,1.641026,375.897436,-758.153846)">
            <circle cx="100" cy="540" r="78" class="grab"/>
            <path d="M100,462C143.049,462 178,496.951 178,540C178,583.049 143.049,618 100,618C56.951,618 22,583.049 22,540C22,496.951 56.951,462 100,462ZM100,467.078C59.753,467.078 27.078,499.753 27.078,540C27.078,580.247 59.753,612.922 100,612.922C140.247,612.922 172.922,580.247 172.922,540C172.922,499.753 140.247,467.078 100,467.078Z"/>
        </g>
        <g id="Text2" transform="matrix(1,0,0,1,119,-412)">
            <g transform="matrix(62.5,0,0,62.5,503.199097,563.4375)">
            </g>
            <text x="338.801px" y="563.438px" style="font-family:'Roboto-Bold', 'Roboto';font-weight:700;font-size:62.5px;">GRAB</text>
        </g>
        <g id="Circle3" transform="matrix(1.641026,0,0,1.641026,375.897436,65.846154)">
            <circle cx="100" cy="540" r="78" class="block"/>
            <path d="M100,462C143.049,462 178,496.951 178,540C178,583.049 143.049,618 100,618C56.951,618 22,583.049 22,540C22,496.951 56.951,462 100,462ZM100,467.078C59.753,467.078 27.078,499.753 27.078,540C27.078,580.247 59.753,612.922 100,612.922C140.247,612.922 172.922,580.247 172.922,540C172.922,499.753 140.247,467.078 100,467.078Z"/>
        </g>
        <g id="Text3" transform="matrix(1,0,0,1,119,412)">
            <g transform="matrix(62.5,0,0,62.5,518.747803,563.4375)">
            </g>
            <text x="323.252px" y="563.438px" style="font-family:'Roboto-Bold', 'Roboto';font-weight:700;font-size:62.5px;">BL<tspan x="395.03px " y="563.438px ">O</tspan>CK</text>
        </g>
        <path d="M287,65.5L412,128L287,190.5L287,65.5Z" style="fill:rgb(239,235,143);"/>
        <path d="M128,412C128,412 128,346.236 128,278C128,238.218 143.804,200.064 171.934,171.934C200.064,143.804 238.218,128 278,128L312,128" style="fill:none;stroke:rgb(239,235,143);stroke-width:41.67px;"/>
        <path d="M793,65.5L668,128L793,190.5L793,65.5Z" style="fill:rgb(239,143,185);"/>
        <path d="M768,128L802,128C841.782,128 879.936,143.804 908.066,171.934C936.196,200.064 952,238.218 952,278L952,412" style="fill:none;stroke:rgb(239,143,185);stroke-width:41.67px;"/>
        <g transform="matrix(0.774648,0,0,1,185.690141,-0)">
            <g transform="matrix(1.290909,-0,-0,1,-239.709091,0)">
                <path d="M699,602.5L824,540L699,477.5L699,602.5Z" style="fill:rgb(239,235,143);"/>
                <path d="M639,519.167L639,560.833L525.667,560.833L525.667,519.167L639,519.167ZM469,519.167L469,560.833L384,560.833L384,519.167L469,519.167ZM724,519.167L724,560.833L695.667,560.833L695.667,519.167L724,519.167Z" style="fill:rgb(239,235,143);"/>
            </g>
        </g>
        <g transform="matrix(-0.774648,0,0,1,894.309859,-0)">
            <g transform="matrix(-1.290909,0,0,1,1154.472727,-0)">
                <path d="M381,477.5L256,540L381,602.5L381,477.5Z" style="fill:rgb(239,143,185);"/>
                <path d="M554.333,519.167L554.333,560.833L441,560.833L441,519.167L554.333,519.167ZM696,519.167L696,560.833L611,560.833L611,519.167L696,519.167ZM356,560.833L356,519.167L384.333,519.167L384.333,560.833L356,560.833Z" style="fill:rgb(239,143,185);"/>
            </g>
        </g>
        <path d="M65.5,793L128,668L190.5,793L65.5,793Z" style="fill:rgb(143,195,239);"/>
        <path d="M412,952L278,952C238.218,952 200.064,936.196 171.934,908.066C143.804,879.936 128,841.782 128,802C128,790.495 128,779.061 128,768" style="fill:none;stroke:rgb(143,195,239);stroke-width:41.67px;"/>
        <path d="M889.5,793L952,668L1014.5,793L889.5,793Z" style="fill:rgb(143,195,239);"/>
        <path d="M668,952L802,952C841.782,952 879.936,936.196 908.066,908.066C936.196,879.936 952,841.782 952,802L952,768" style="fill:none;stroke:rgb(143,195,239);stroke-width:41.67px;"/>
        <path d="M602.5,699L540,824L477.5,699L602.5,699Z" style="fill:rgb(239,185,143);"/>
        <path d="M540,256L540,724" style="fill:none;stroke:rgb(239,185,143);stroke-width:41.67px;"/>
</svg>
