<?xml version="1.0" encoding="UTF-8" standalone="no"?>
<!DOCTYPE svg PUBLIC "-//W3C//DTD SVG 1.1//EN" "http://www.w3.org/Graphics/SVG/1.1/DTD/svg11.dtd">
<svg width="100%" height="100%" viewBox="0 0 712 712" version="1.1" xmlns="http://www.w3.org/2000/svg" xmlns:xlink="http://www.w3.org/1999/xlink" xml:space="preserve" xmlns:serif="http://www.serif.com/" style="fill-rule:evenodd;clip-rule:evenodd;stroke-linejoin:round;stroke-miterlimit:2;">
    <g transform="matrix(1,0,0,1,-3810,-762)">
        <g id="Dash-Icon" serif:id="Dash Icon" transform="matrix(0.659259,0,0,0.659259,3810,762)">
            <rect x="0" y="0" width="1080" height="1080" style="fill:none;"/>
            <g>
                <g transform="matrix(1.516854,0,0,1.516854,151.685393,151.685393)">
                    <circle cx="256" cy="256" r="256" style="fill:rgb(28,29,31);"/>
                    <path d="M256,0C397.29,0 512,114.71 512,256C512,397.29 397.29,512 256,512C114.71,512 0,397.29 0,256C0,114.71 114.71,0 256,0ZM256,16.667C123.908,16.667 16.667,123.908 16.667,256C16.667,388.092 123.908,495.333 256,495.333C388.092,495.333 495.333,388.092 495.333,256C495.333,123.908 388.092,16.667 256,16.667Z" style="fill:rgb(142,145,152);"/>
                </g>
            </g>
            <g transform="matrix(1.91346,0,0,1.91346,-7338.39776,-1536.184154)">
                <path d="M4209.674,958.639C4228.487,958.639 4243.761,973.913 4243.761,992.726C4243.761,1011.539 4228.487,1026.813 4209.674,1026.813C4190.86,1026.813 4175.586,1011.539 4175.586,992.726C4175.586,973.913 4190.86,958.639 4209.674,958.639ZM4139.535,1011.295C4130.247,1002.008 4115.189,1002.008 4105.902,1011.295L4081.647,1035.55C4079.417,1037.78 4076.393,1039.032 4073.24,1039.032C4070.087,1039.032 4067.063,1037.78 4064.833,1035.55L4064.832,1035.549C4062.602,1033.319 4061.349,1030.294 4061.349,1027.141C4061.349,1023.987 4062.602,1020.963 4064.832,1018.733L4095.812,987.752C4102.948,980.616 4112.627,976.607 4122.718,976.607C4132.81,976.607 4142.489,980.616 4149.624,987.752L4187.741,1025.869C4197.029,1035.156 4197.029,1050.214 4187.741,1059.502L4129.445,1117.798L4174.171,1162.524C4175.521,1163.874 4176.279,1165.705 4176.279,1167.614C4176.279,1179.102 4166.967,1188.414 4155.48,1188.414C4155.48,1188.414 4115.09,1188.414 4094.415,1188.414C4087.848,1188.414 4082.524,1183.091 4082.524,1176.523C4082.524,1176.523 4082.524,1176.523 4082.524,1176.523C4082.524,1173.37 4083.777,1170.345 4086.007,1168.115C4088.237,1165.885 4091.261,1164.632 4094.415,1164.632L4142.647,1164.632L4084.601,1106.587C4080.141,1102.127 4077.636,1096.078 4077.636,1089.771C4077.636,1083.464 4080.141,1077.415 4084.601,1072.955L4142.898,1014.658L4139.535,1011.295ZM4076.754,1114.435L4001.331,1189.858C3999.101,1192.088 3996.077,1193.34 3992.924,1193.34C3989.77,1193.34 3986.746,1192.088 3984.517,1189.858L3984.514,1189.856C3982.285,1187.626 3981.032,1184.602 3981.032,1181.449C3981.032,1178.296 3982.285,1175.271 3984.514,1173.042L4066.559,1090.997C4066.869,1099.803 4070.502,1108.183 4076.754,1114.435ZM4194.78,1068.158C4196.376,1079.742 4206.316,1088.664 4218.338,1088.664L4228.644,1088.664C4231.798,1088.664 4234.822,1089.916 4237.052,1092.146C4239.282,1094.376 4240.535,1097.401 4240.535,1100.555C4240.535,1103.708 4239.282,1106.733 4237.052,1108.963C4234.822,1111.193 4231.798,1112.445 4228.644,1112.445L4208.826,1112.445C4198.734,1112.445 4189.055,1108.437 4181.92,1101.301C4178.409,1097.79 4175.655,1093.664 4173.763,1089.175L4194.78,1068.158Z" style="fill:white;"/>
            </g>
        </g>
    </g>
</svg>
