<svg viewBox="0 0 712 712" xmlns="http://www.w3.org/2000/svg" xml:space="preserve" style="fill-rule:evenodd;clip-rule:evenodd;stroke-linejoin:round;stroke-miterlimit:2">
  <path style="fill:none" d="M0 0h1080v1080H0z" transform="scale(.65926)"/>
  <g transform="translate(100 100)">
    <circle cx="256" cy="256" r="256" style="fill:#1c1d1f"/>
    <path d="M256 0c141.29 0 256 114.71 256 256S397.29 512 256 512 0 397.29 0 256 114.71 0 256 0m0 16.667C123.908 16.667 16.667 123.908 16.667 256S123.908 495.333 256 495.333 495.333 388.092 495.333 256 388.092 16.667 256 16.667" style="fill:#8e9198"/>
  </g>
  <path d="M4209.674 958.639c18.813 0 34.087 15.274 34.087 34.087s-15.274 34.087-34.087 34.087-34.088-15.274-34.088-34.087 15.274-34.087 34.088-34.087m-70.139 52.656c-9.288-9.287-24.346-9.287-33.633 0l-24.255 24.255a11.89 11.89 0 0 1-16.814 0l-.001-.001a11.89 11.89 0 0 1 0-16.816l30.98-30.981a38.05 38.05 0 0 1 53.812 0l38.117 38.117c9.288 9.287 9.288 24.345 0 33.633l-58.296 58.296 44.726 44.726a7.2 7.2 0 0 1 2.108 5.09c0 11.488-9.312 20.8-20.799 20.8h-61.065c-6.567 0-11.891-5.323-11.891-11.891a11.89 11.89 0 0 1 11.891-11.891h48.232l-58.046-58.045a23.78 23.78 0 0 1 0-33.632l58.297-58.297zm-62.781 103.14-75.423 75.423a11.89 11.89 0 0 1-16.814 0l-.003-.002a11.893 11.893 0 0 1 0-16.814l82.045-82.045a34.88 34.88 0 0 0 10.195 23.438m118.026-46.277c1.596 11.584 11.536 20.506 23.558 20.506h10.306a11.89 11.89 0 0 1 8.408 20.299 11.9 11.9 0 0 1-8.408 3.482h-19.818a38.05 38.05 0 0 1-35.063-23.27z" style="fill:#fff" transform="translate(-4837.912 -1012.745)scale(1.26147)"/>
</svg>
