<svg viewBox="0 0 712 712" xmlns="http://www.w3.org/2000/svg" xml:space="preserve" style="fill-rule:evenodd;clip-rule:evenodd;stroke-miterlimit:3">
  <g transform="scale(.65926)">
    <path style="fill:none" d="M0 0h1080v1080H0z"/>
    <clipPath id="a">
      <path d="M0 0h1080v1080H0z"/>
    </clipPath>
    <g clip-path="url(#a)">
      <g transform="translate(151.685 151.685)scale(1.51686)">
        <circle cx="256" cy="256" r="256" style="fill:#1c1d1f"/>
        <path d="M256 0c141.29 0 256 114.71 256 256S397.29 512 256 512 0 397.29 0 256 114.71 0 256 0m0 16.667C123.908 16.667 16.667 123.908 16.667 256S123.908 495.333 256 495.333 495.333 388.092 495.333 256 388.092 16.667 256 16.667" style="fill:#8e9198"/>
      </g>
      <g transform="translate(285.168 285.168)scale(.99544)">
        <circle cx="256" cy="256" r="256" style="fill:#1c1d1f"/>
        <path d="M256 0c141.29 0 256 114.71 256 256S397.29 512 256 512 0 397.29 0 256 114.71 0 256 0m0 29.63C131.063 29.63 29.63 131.063 29.63 256S131.063 482.37 256 482.37 482.37 380.937 482.37 256 380.937 29.63 256 29.63" style="fill:#8e9198"/>
      </g>
      <path d="M503.667 693.25 612 612l-108.333-81.25z" style="fill:#f3eb07" transform="scale(1.51685)"/>
      <path d="M525.333 612H356l196.459-256H356" style="fill:none;stroke:#f3eb07;stroke-width:72.22px" transform="scale(1.51685)"/>
    </g>
  </g>
</svg>
