<svg viewBox="0 0 712 712" xmlns="http://www.w3.org/2000/svg" xml:space="preserve" style="fill-rule:evenodd;clip-rule:evenodd;stroke-linejoin:round;stroke-miterlimit:2">
  <path style="fill:none" d="M0 0h1080v1080H0z" transform="scale(.65926)"/>
  <g transform="translate(100 100)">
    <circle cx="256" cy="256" r="256" style="fill:#1c1d1f"/>
    <path d="M256 0c141.29 0 256 114.71 256 256S397.29 512 256 512 0 397.29 0 256 114.71 0 256 0m0 16.667C123.908 16.667 16.667 123.908 16.667 256S123.908 495.333 256 495.333 495.333 388.092 495.333 256 388.092 16.667 256 16.667" style="fill:#8e9198"/>
  </g>
  <g transform="translate(188 188)scale(.65625)">
    <circle cx="256" cy="256" r="256" style="fill:#1c1d1f"/>
    <path d="M256 0c141.29 0 256 114.71 256 256S397.29 512 256 512 0 397.29 0 256 114.71 0 256 0m0 29.63C131.063 29.63 29.63 131.063 29.63 256S131.063 482.37 256 482.37 482.37 380.937 482.37 256 380.937 29.63 256 29.63" style="fill:#8e9198"/>
  </g>
</svg>
