<svg viewBox="0 0 712 712" xmlns="http://www.w3.org/2000/svg" xml:space="preserve" style="fill-rule:evenodd;clip-rule:evenodd;stroke-linejoin:round;stroke-miterlimit:2">
  <path style="fill:none" d="M0 0h1080v1080H0z" transform="scale(.65926)"/>
  <g transform="scale(.65926) translate(151.685 151.685)scale(1.51685)">
    <circle cx="256" cy="256" r="256" style="fill:#1c1d1f"/>
    <path d="M256 0c141.29 0 256 114.71 256 256S397.29 512 256 512 0 397.29 0 256 114.71 0 256 0m0 16.667C123.908 16.667 16.667 123.908 16.667 256S123.908 495.333 256 495.333 495.333 388.092 495.333 256 388.092 16.667 256 16.667" style="fill:#8e9198"/>
  </g>
  <path d="M4856.752 1223.941c-41.476-11.657-80.691-33.1-110.125-62.534l17.678-17.677c41.581 41.581 104.89 65.272 163.695 65.272s122.114-23.691 163.695-65.272l17.678 17.677c-29.434 29.434-68.649 50.877-110.125 62.534v17.279c0 41.773-29.475 72.285-71.248 72.285s-71.248-30.512-71.248-72.285zm82.274 9.811q-5.532.25-11.026.25t-11.026-.25c.598 29.293 3.303 54.376 11.026 56.095 7.723-1.719 10.428-26.802 11.026-56.095" style="fill:#ffed00" transform="scale(.65926) translate(-6935.056 -1147.225)scale(1.51685)"/>
  <path d="M721.279 336.052c56.281 0 101.974 45.693 101.974 101.974S777.56 540 721.279 540s-101.974-45.693-101.974-101.974 45.693-101.974 101.974-101.974m33.431 23.398c-26.159 0-47.396 21.238-47.396 47.397s21.237 47.396 47.396 47.396 47.396-21.238 47.396-47.396-21.237-47.397-47.396-47.397" style="fill:#ffed00" transform="scale(.65926) translate(-166.443 -101.08)scale(1.23076)"/>
  <path d="M721.279 312.52c69.268 0 125.505 56.238 125.505 125.506s-56.237 125.506-125.505 125.506c-69.269 0-125.506-56.238-125.506-125.506S652.01 312.52 721.279 312.52m-18.516 121.747c-26.159 0-47.396 21.238-47.396 47.397s21.237 47.396 47.396 47.396 47.396-21.237 47.396-47.396-21.237-47.397-47.396-47.397" style="fill:#ffed00" transform="scale(.65926) translate(-341.014)"/>
</svg>
