<svg viewBox="0 0 712 712" xmlns="http://www.w3.org/2000/svg" xml:space="preserve" style="fill-rule:evenodd;clip-rule:evenodd;stroke-linejoin:round;stroke-miterlimit:2">
  <g transform="scale(.65926)">
    <path style="fill:none" d="M0 0h1080v1080H0z"/>
    <clipPath id="a">
      <path d="M0 0h1080v1080H0z"/>
    </clipPath>
    <g clip-path="url(#a)">
      <path d="M662 0a49.997 49.997 0 0 1 50 50v612a49.997 49.997 0 0 1-50 50H50a49.997 49.997 0 0 1-50-50V50A49.997 49.997 0 0 1 50 0z" style="fill:#d552e0" transform="scale(1.51685)"/>
      <path d="M662 0a49.997 49.997 0 0 1 50 50v612a49.997 49.997 0 0 1-50 50H50a49.997 49.997 0 0 1-50-50V50A49.997 49.997 0 0 1 50 0zm19 81a49.997 49.997 0 0 0-50-50H81a49.997 49.997 0 0 0-50 50v550a49.997 49.997 0 0 0 50 50h550a49.997 49.997 0 0 0 50-50z" style="fill:#1c1d1f" transform="scale(1.51685)"/>
      <circle cx="356" cy="133" r="54" style="fill:#1c1d1f" transform="translate(40 84.217)scale(1.4045)"/>
      <path d="M267.643 902.427c-5.658 18.474-17.192 27.481-28.121 21.96l-119.047-60.138c-6.367-3.216-11.796-11.07-15.092-21.832s-4.189-23.553-2.483-35.558l.001-.004c3.594-25.287 17.38-40.293 30.793-33.517l90.974 45.956c5.465 2.761 11.232-1.743 14.061-10.98L306 588.648V256.274l-68.76-51.753c-5.262-3.96-11.279-.753-14.662 7.816l-41.47 105.037c-3.959 10.027-9.868 16.679-16.429 18.492-6.56 1.812-13.233-1.362-18.552-8.826l-.002-.003c-11.075-15.54-13.37-45.064-5.127-65.943l58.684-148.638c6.766-17.137 18.799-23.552 29.323-15.631L343.5 183h49.559l100.996-51.019c4.314-2.179 7.683-8.531 8.839-16.664l21.072-148.261c3.574-25.143 17.282-40.064 30.619-33.327 6.404 3.235 11.865 11.135 15.18 21.96s4.213 23.69 2.497 35.765l-26.675 187.687c-2.312 16.265-9.051 28.969-17.678 33.327L406 274.052v279.313l128.985 140.396c1.892 2.06 3.633 4.578 5.178 7.49l108.941 205.385c9.819 18.511 9.819 48.523 0 67.034l-.002.004c-9.706 18.299-25.443 18.299-35.15 0L508.299 774.487c-.773-1.456-1.643-2.715-2.589-3.745L381 635l-31.699.78z" style="fill:#1c1d1f" transform="matrix(1.21348 0 0 .64366 108 233.918)"/>
    </g>
  </g>
</svg>
