<svg viewBox="0 0 712 712" xmlns="http://www.w3.org/2000/svg" xml:space="preserve" style="fill-rule:evenodd;clip-rule:evenodd;stroke-linejoin:round;stroke-miterlimit:2">
  <g transform="scale(.65926)">
    <path style="fill:none" d="M0 0h1080v1080H0z"/>
    <clipPath id="a">
      <path d="M0 0h1080v1080H0z"/>
    </clipPath>
    <g clip-path="url(#a)">
      <path d="M662 0a49.997 49.997 0 0 1 50 50v612a49.997 49.997 0 0 1-50 50H50a49.997 49.997 0 0 1-50-50V50A49.997 49.997 0 0 1 50 0z" style="fill:#e09052" transform="scale(1.51685)"/>
      <path d="M662 0a49.997 49.997 0 0 1 50 50v612a49.997 49.997 0 0 1-50 50H50a49.997 49.997 0 0 1-50-50V50A49.997 49.997 0 0 1 50 0zm19 81a49.997 49.997 0 0 0-50-50H81a49.997 49.997 0 0 0-50 50v550a49.997 49.997 0 0 0 50 50h550a49.997 49.997 0 0 0 50-50z" style="fill:#1c1d1f" transform="scale(1.51685)"/>
      <circle cx="356" cy="133" r="54" style="fill:#1c1d1f" transform="translate(40 102.855)scale(1.4045)"/>
      <path d="M406 316.309v224.427h44.74c13.807 0 25 21.102 25 47.132V913.75c0 12.5-2.634 24.489-7.322 33.328s-11.048 13.804-17.678 13.804c-13.807 0-25-21.101-25-47.132V658.566c0-13.015-5.596-23.566-12.5-23.566h-49.505l-60.106 196.269c-2.233 7.292-2.233 16.275 0 23.566s6.36 11.783 10.825 11.783h22.857c13.806 0 24.998 21.1 24.998 47.128v.009c0 26.028-11.192 47.127-24.998 47.127h-79.742c-5.968 0-11.691-4.469-15.91-12.424-4.22-7.955-6.59-18.744-6.59-29.994v-25.893c0-17.002 2.374-33.704 6.883-48.428L306 635v-49.235c4.473 3.37 9.302 5.061 14.215 4.868 9.788-.385 19.078-8.212 25.759-21.704l.003-.005c13.893-28.057 13.494-71.822-.902-98.962L306 396.295v-79.986l-30.052 56.657 60.288 113.659c9.633 18.16 9.899 47.444.604 66.217l-.003.005c-4.378 8.843-10.467 13.973-16.882 14.225s-12.612-4.396-17.182-12.887l-80.496-149.56c-4.508-8.375-7.056-19.796-7.079-31.728s2.481-23.387 6.956-31.824l80.185-151.171c2.344-4.419 5.523-6.902 8.839-6.902h89.644c3.316 0 6.495 2.483 8.839 6.902l85.232 160.686c4.689 8.839 7.323 20.827 7.323 33.328v202.002c0 20.385-6.866 37.748-16.476 44.317v-42.367c0-35.51-14.879-64.469-33.524-65.927v-98.98c0-12.5-2.634-24.488-7.323-33.327z" style="fill:#1c1d1f" transform="matrix(1.21348 0 0 .64366 104.716 247.705)"/>
    </g>
  </g>
</svg>
