<svg viewBox="0 0 712 712" xmlns="http://www.w3.org/2000/svg" xml:space="preserve" style="fill-rule:evenodd;clip-rule:evenodd;stroke-linejoin:round;stroke-miterlimit:2">
  <g transform="scale(.65926)">
    <path style="fill:none" d="M0 0h1080v1080H0z"/>
    <clipPath id="a">
      <path d="M0 0h1080v1080H0z"/>
    </clipPath>
    <g clip-path="url(#a)">
      <path d="M662 0a49.997 49.997 0 0 1 50 50v612a49.997 49.997 0 0 1-50 50H50a49.997 49.997 0 0 1-50-50V50A49.997 49.997 0 0 1 50 0z" style="fill:#e0dd52" transform="scale(1.51685)"/>
      <path d="M213.453 774.11v-40.216c0-3.385 1.446-6.578 3.913-8.639 2.466-2.062 5.673-2.756 8.675-1.88l32.392 9.452-29.436 119.639 14.319 27.009c.404.763 1.191 1.186 1.993 1.071s1.461-.745 1.671-1.596l12.726-51.725c2.859-11.619 13.826-18.515 24.495-15.401h.002c10.668 3.113 16.999 15.055 14.141 26.673L271.87 946.096c-2.094 8.509-8.688 14.807-16.708 15.957s-15.886-3.075-19.931-10.704l-26.81-50.571c6.631-7.458 11.662-16.802 14.303-27.533 8.285-33.673-10.092-68.337-41.013-77.36-7.108-2.074-14.264-2.614-21.171-1.806l4.913-19.969v-94.148c0-6.771 2.892-13.157 7.825-17.28 4.933-4.122 11.346-5.511 17.352-3.758l108.121 31.55c10.669 3.114 17.001 15.057 14.142 26.676-1.373 5.58-4.725 10.337-9.318 13.226-4.594 2.888-10.053 3.671-15.177 2.176l-70.357-20.531c-3.002-.876-6.209-.182-8.675 1.879s-3.913 5.255-3.913 8.64v51.57zm59.474-100.191-77.274-22.549 58.19-236.506c2.842-11.552 13.745-18.407 24.352-15.312l.002.001c10.731 3.131 17.098 15.142 14.223 26.828l-52.991 215.373 5.081 1.483 77.264-89.709c1.739-2.019 2.707-4.683 2.707-7.451v-82.733c0-11.959 8.902-21.654 19.884-21.654h.002c11.108 0 20.114 9.807 20.114 21.905v95.407c0 5.535-1.936 10.863-5.413 14.901z" style="fill:#1c1d1f" transform="rotate(75 668.07 917.62)scale(1.51685 1.39283)"/>
      <path d="M662 0a49.997 49.997 0 0 1 50 50v612a49.997 49.997 0 0 1-50 50H50a49.997 49.997 0 0 1-50-50V50A49.997 49.997 0 0 1 50 0zm19 81a49.997 49.997 0 0 0-50-50H81a49.997 49.997 0 0 0-50 50v550a49.997 49.997 0 0 0 50 50h550a49.997 49.997 0 0 0 50-50z" style="fill:#1c1d1f" transform="scale(1.51685)"/>
      <circle cx="356" cy="133" r="54" style="fill:#1c1d1f" transform="translate(-205.89 401.167)scale(1.4045)"/>
    </g>
  </g>
</svg>
