<svg viewBox="0 0 712 712" xmlns="http://www.w3.org/2000/svg" xml:space="preserve" style="fill-rule:evenodd;clip-rule:evenodd;stroke-linejoin:round;stroke-miterlimit:2">
  <g transform="scale(.65926)">
    <path style="fill:none" d="M0 0h1080v1080H0z"/>
    <clipPath id="a">
      <path d="M0 0h1080v1080H0z"/>
    </clipPath>
    <g clip-path="url(#a)">
      <path d="M662 0a49.997 49.997 0 0 1 50 50v612a49.997 49.997 0 0 1-50 50H50a49.997 49.997 0 0 1-50-50V50A49.997 49.997 0 0 1 50 0z" style="fill:#52e066" transform="scale(1.51685)"/>
      <path d="M662 0a49.997 49.997 0 0 1 50 50v612a49.997 49.997 0 0 1-50 50H50a49.997 49.997 0 0 1-50-50V50A49.997 49.997 0 0 1 50 0zm19 81a49.997 49.997 0 0 0-50-50H81a49.997 49.997 0 0 0-50 50v550a49.997 49.997 0 0 0 50 50h550a49.997 49.997 0 0 0 50-50z" style="fill:#1c1d1f" transform="scale(1.51685)"/>
      <circle cx="356" cy="133" r="54" style="fill:#1c1d1f" transform="translate(292.428 129.562)scale(1.4045)"/>
      <path d="M356 644.027v564.629c0 12.499-2.634 24.486-7.322 33.324s-11.046 13.803-17.675 13.803h-.006c-13.805 0-24.997-21.1-24.997-47.127V277.264h-80c-3.315 0-6.495 2.483-8.839 6.902S213.5 294.58 213.5 300.83v198.227c0 25.88-11.128 46.859-24.855 46.859h-.003c-13.885 0-25.142-21.222-25.142-47.401V230.132c0-12.5 2.634-24.488 7.322-33.327S181.87 183 188.5 183h205c3.315 0 6.495 2.483 8.839 6.902S406 200.316 406 206.566v303.083l81.058-55.324c7.662-5.23 16.196-3.091 22.867 5.732s10.643 23.222 10.643 38.585v310.671c0 12.428-2.619 24.347-7.28 33.134-4.661 8.788-10.983 13.725-17.575 13.725h-.003c-6.668 0-13.063-4.994-17.778-13.883-4.715-8.89-7.364-20.946-7.364-33.518V599.425c0-7.681-1.986-14.881-5.322-19.292-3.335-4.412-7.602-5.481-11.433-2.866z" style="fill:#1c1d1f" transform="rotate(45 266.515 608.242)scale(1.21348 .64366)"/>
      <path d="M-70.826 261.456v181.513c0 11.26-2.941 22.002-8.106 29.611s-12.079 11.386-19.06 10.411l-99.947-13.966c-13.188-1.843-26.29 4.808-36.426 18.489s-16.474 33.271-17.621 54.462v.01c-1.151 21.261 3.003 42.385 11.548 58.722s20.779 26.55 34.01 28.389l181.294 25.193c13.957 1.94 27.781-5.619 38.106-20.837 10.324-15.217 16.202-36.697 16.202-59.209v-110.82z" style="fill:#1c1d1f" transform="rotate(-173.506 379.33 147.913)scale(.60674 -.37758)"/>
    </g>
  </g>
</svg>
