<svg viewBox="0 0 712 712" xmlns="http://www.w3.org/2000/svg" xml:space="preserve" style="fill-rule:evenodd;clip-rule:evenodd;stroke-linejoin:round;stroke-miterlimit:2">
  <g transform="scale(.65926)">
    <path style="fill:none" d="M0 0h1080v1080H0z"/>
    <clipPath id="a">
      <path d="M0 0h1080v1080H0z"/>
    </clipPath>
    <g clip-path="url(#a)">
      <path d="M662 0a49.997 49.997 0 0 1 50 50v612a49.997 49.997 0 0 1-50 50H50a49.997 49.997 0 0 1-50-50V50A49.997 49.997 0 0 1 50 0z" style="fill:#52bfe0" transform="scale(1.51685)"/>
      <circle cx="356" cy="133" r="54" style="fill:#1c1d1f" transform="translate(40 -39.663)scale(1.4045)"/>
      <path d="M662 0a49.997 49.997 0 0 1 50 50v612a49.997 49.997 0 0 1-50 50H50a49.997 49.997 0 0 1-50-50V50A49.997 49.997 0 0 1 50 0zm19 81a49.997 49.997 0 0 0-50-50H81a49.997 49.997 0 0 0-50 50v550a49.997 49.997 0 0 0 50 50h550a49.997 49.997 0 0 0 50-50z" style="fill:#1c1d1f" transform="scale(1.51685)"/>
      <path d="M306 267.084c0-3.084-1.441-5.69-3.369-6.093s-3.746 1.524-4.249 4.503l-29.264 173.209-4.959 184.018c-.622 23.072-12.919 40.977-27.467 39.99l-.137-.009c-12.99-.88-23.096-18.227-22.624-38.834l4.363-190.727 37.297-220.754C258.519 195.053 268.424 183 279.739 183h152.522c11.315 0 21.22 12.053 24.148 29.387l36.192 214.216 5.259 195.125c.586 21.75-10.057 40.136-23.771 41.066h-.003c-13.873.941-25.6-16.133-26.193-38.136l-5.011-185.955-29.264-173.209c-.503-2.979-2.321-4.905-4.249-4.503S406 264 406 267.084v893.271c0 18.611-9.513 33.698-21.248 33.698h-.004c-5.636 0-11.04-3.551-15.025-9.87-3.984-6.32-6.223-14.891-6.223-23.828V635h-15v525.355c0 8.937-2.239 17.508-6.223 23.828-3.985 6.319-9.389 9.87-15.025 9.87h-.004c-11.735 0-21.248-15.087-21.248-33.698z" style="fill:#1c1d1f" transform="matrix(1.21348 0 0 .76514 108 82.957)"/>
    </g>
  </g>
</svg>
