<svg width="100%" height="100%" viewBox="0 0 1480 1450" version="1.1" xmlns="http://www.w3.org/2000/svg" xmlns:xlink="http://www.w3.org/1999/xlink" xml:space="preserve" style="fill-rule:evenodd;clip-rule:evenodd;stroke-miterlimit:1.5;">
    <g transform="matrix(1,0,0,1,-1763,0)">
        <g id="Mesa-de-trabajo1" transform="matrix(1.37037,0,0,1.342593,-155.518519,0)">
            <rect x="1400" y="0" width="1080" height="1080" style="fill:none;"/>
            <g transform="matrix(1.459459,0,0,0.744828,-625.72973,0)">
                <path d="M1830,109C1830,148.738 1813.869,181 1794,181L1722,181C1702.131,181 1686,148.738 1686,109C1686,69.262 1702.131,37 1722,37L1794,37C1813.869,37 1830,69.262 1830,109Z" style="fill:rgb(23,23,23);"/>
                <path d="M1830,109C1830,148.738 1813.869,181 1794,181L1722,181C1702.131,181 1686,148.738 1686,109C1686,69.262 1702.131,37 1722,37L1794,37C1813.869,37 1830,69.262 1830,109ZM1825.833,109C1825.833,73.861 1811.569,45.333 1794,45.333L1722,45.333C1704.431,45.333 1690.167,73.861 1690.167,109C1690.167,144.139 1704.431,172.667 1722,172.667L1794,172.667C1811.569,172.667 1825.833,144.139 1825.833,109Z" style="fill:rgb(250,250,210);"/>
            </g>
            <g transform="matrix(1.459459,0,0,0.744828,-625.72973,911.668966)">
                <path d="M1830,109C1830,148.738 1813.869,181 1794,181L1722,181C1702.131,181 1686,148.738 1686,109C1686,69.262 1702.131,37 1722,37L1794,37C1813.869,37 1830,69.262 1830,109Z" style="fill:rgb(23,23,23);"/>
                <path d="M1830,109C1830,148.738 1813.869,181 1794,181L1722,181C1702.131,181 1686,148.738 1686,109C1686,69.262 1702.131,37 1722,37L1794,37C1813.869,37 1830,69.262 1830,109ZM1825.833,109C1825.833,73.861 1811.569,45.333 1794,45.333L1722,45.333C1704.431,45.333 1690.167,73.861 1690.167,109C1690.167,144.139 1704.431,172.667 1722,172.667L1794,172.667C1811.569,172.667 1825.833,144.139 1825.833,109Z" style="fill:rgb(250,250,210);"/>
            </g>
            <g transform="matrix(0.72973,0,0,0.372414,524.324324,112.096552)">
                <rect x="1796" y="205" width="288" height="288" style="fill:rgb(23,23,23);"/>
                <path d="M2084,205L2084,493L1796,493L1796,205L2084,205ZM2075.667,221.667L1804.333,221.667L1804.333,476.333L2075.667,476.333L2075.667,221.667Z" style="fill:rgb(250,250,210);"/>
            </g>
            <g transform="matrix(0.72973,0,-0.210655,0.372414,440.221238,272.97931)">
                <rect x="1796" y="205" width="288" height="288" style="fill:rgb(23,23,23);"/>
                <path d="M2084,205L2084,493L1796,493L1796,205L2084,205ZM2074.377,221.667L1805.623,221.667L1805.623,476.333L2074.377,476.333L2074.377,221.667Z" style="fill:rgb(250,250,210);"/>
            </g>
            <g transform="matrix(0.72973,0,-0.210655,0.372414,440.221238,702)">
                <rect x="1796" y="205" width="288" height="288" style="fill:rgb(23,23,23);"/>
                <path d="M2084,205L2084,493L1796,493L1796,205L2084,205ZM2074.377,221.667L1805.623,221.667L1805.622,476.333L2074.377,476.333L2074.377,221.667Z" style="fill:rgb(250,250,210);"/>
            </g>
            <g transform="matrix(0.72973,0,-0.210655,0.372414,755.464481,272.97931)">
                <rect x="1796" y="205" width="288" height="288" style="fill:rgb(23,23,23);"/>
                <path d="M2084,205L2084,493L1796,493L1796,205L2084,205ZM2074.377,221.667L1805.623,221.667L1805.622,476.333L2074.377,476.333L2074.377,221.667Z" style="fill:rgb(250,250,210);"/>
            </g>
            <g transform="matrix(0.72973,0,-0.210655,0.372414,755.464481,702)">
                <rect x="1796" y="205" width="288" height="288" style="fill:rgb(23,23,23);"/>
                <path d="M2084,205L2084,493L1796,493L1796,205L2084,205ZM2074.377,221.667L1805.623,221.667L1805.622,476.333L2074.377,476.333L2074.377,221.667Z" style="fill:rgb(250,250,210);"/>
            </g>
            <g transform="matrix(1.459459,0,0,1.489655,-1469.297297,133.324138)">
                <path d="M2228,253L2300,325L2228,397L2156,325L2228,253Z" style="fill:rgb(23,23,23);"/>
                <path d="M2228,253L2300,325L2228,397L2156,325L2228,253ZM2228,258.893L2161.893,325L2228,391.107L2294.107,325L2228,258.893Z" style="fill:rgb(250,250,210);"/>
            </g>
            <g transform="matrix(1.459459,0,0,1.489655,-1154.054054,133.324138)">
                <path d="M2228,253L2300,325L2228,397L2156,325L2228,253Z" style="fill:rgb(23,23,23);"/>
                <path d="M2228,253L2300,325L2228,397L2156,325L2228,253ZM2228,258.893L2161.893,325L2228,391.107L2294.107,325L2228,258.893Z" style="fill:rgb(250,250,210);"/>
            </g>
            <g transform="matrix(0.72973,0,0,0.744828,113.486486,0)">
                <g transform="matrix(1,-0,-0,1,1763,-0)">
                    <path d="M752.5,228L740,253L727.5,228L752.5,228Z" style="fill:rgb(226,226,226);"/>
                    <path d="M740,181L740,233" style="fill:none;stroke:rgb(226,226,226);stroke-width:8.33px;"/>
                </g>
            </g>
            <g transform="matrix(0.72973,0,0,0.744828,113.486486,160.882759)">
                <g transform="matrix(1,-0,-0,1,1763,-216)">
                    <path d="M536.5,444L524,469L511.5,444L536.5,444Z" style="fill:rgb(226,226,226);"/>
                    <path d="M740,397L740,431L524,431L524,449" style="fill:none;stroke:rgb(226,226,226);stroke-width:8.33px;"/>
                </g>
            </g>
            <g transform="matrix(0.72973,0,0,0.744828,113.486486,160.882759)">
                <g transform="matrix(1,-0,-0,1,1763,-216)">
                    <path d="M968.5,444L956,469L943.5,444L968.5,444Z" style="fill:rgb(226,226,226);"/>
                    <path d="M740,397L740,431L956,431L956,449" style="fill:none;stroke:rgb(226,226,226);stroke-width:8.33px;"/>
                </g>
            </g>
            <g transform="matrix(0.72973,0,0,0.744828,113.486486,160.882759)">
                <g transform="matrix(1,-0,-0,1,1763,-216)">
                    <path d="M536.5,660L524,685L511.5,660L536.5,660Z" style="fill:rgb(226,226,226);"/>
                    <path d="M524,613L524,665" style="fill:none;stroke:rgb(226,226,226);stroke-width:8.33px;"/>
                </g>
            </g>
            <g transform="matrix(0.72973,0,0,0.744828,113.486486,160.882759)">
                <g transform="matrix(1,-0,-0,1,1763,-216)">
                    <path d="M968.5,660L956,685L943.5,660L968.5,660Z" style="fill:rgb(226,226,226);"/>
                    <path d="M956,613L956,665" style="fill:none;stroke:rgb(226,226,226);stroke-width:8.33px;"/>
                </g>
            </g>
            <g transform="matrix(0.72973,0,0,0.744828,113.486486,160.882759)">
                <g transform="matrix(1,-0,-0,1,1763,-216)">
                    <path d="M536.5,1020L524,1045L511.5,1020L536.5,1020Z" style="fill:rgb(226,226,226);"/>
                    <path d="M524,973L524,1025" style="fill:none;stroke:rgb(226,226,226);stroke-width:8.33px;"/>
                </g>
            </g>
            <g transform="matrix(0.72973,0,0,0.744828,113.486486,160.882759)">
                <g transform="matrix(1,-0,-0,1,1763,-216)">
                    <path d="M968.5,1020L956,1045L943.5,1020L968.5,1020Z" style="fill:rgb(226,226,226);"/>
                    <path d="M956,973L956,1025" style="fill:none;stroke:rgb(226,226,226);stroke-width:8.33px;"/>
                </g>
            </g>
            <g transform="matrix(0.72973,0,0,0.744828,113.486486,160.882759)">
                <g transform="matrix(1,-0,-0,1,1763,-216)">
                    <path d="M1125,553.5L1100,541L1125,528.5L1125,553.5Z" style="fill:rgb(226,226,226);"/>
                    <path d="M1100,829L1217,829L1217,541L1120,541" style="fill:none;stroke:rgb(226,226,226);stroke-width:8.33px;"/>
                </g>
            </g>
            <g transform="matrix(0.72973,0,0,0.744828,113.486486,160.882759)">
                <g transform="matrix(1,-0,-0,1,1763,-216)">
                    <path d="M909,1345.5L884,1333L909,1320.5L909,1345.5Z" style="fill:rgb(226,226,226);"/>
                    <path d="M1100,829L1217,829L1217,1333L904,1333" style="fill:none;stroke:rgb(226,226,226);stroke-width:8.33px;"/>
                </g>
            </g>
            <g transform="matrix(0.72973,0,0,0.744828,113.486486,160.882759)">
                <g transform="matrix(1,-0,-0,1,1763,-216)">
                    <path d="M571,312.5L596,325L571,337.5L571,312.5Z" style="fill:rgb(226,226,226);"/>
                    <path d="M380,1117L167,1117L167,325L576,325" style="fill:none;stroke:rgb(226,226,226);stroke-width:8.33px;"/>
                </g>
            </g>
            <g transform="matrix(0.72973,0,0,0.744828,113.486486,160.882759)">
                <g transform="matrix(1,-0,-0,1,1763,-216)">
                    <path d="M909,337.5L884,325L909,312.5L909,337.5Z" style="fill:rgb(226,226,226);"/>
                    <path d="M1100,1117L1286,1117L1286,325L904,325" style="fill:none;stroke:rgb(226,226,226);stroke-width:8.33px;"/>
                </g>
            </g>
            <g transform="matrix(0.72973,0,0,0.744828,113.486486,160.882759)">
                <g transform="matrix(1,-0,-0,1,1763,-216)">
                    <path d="M787,528.5L812,541L787,553.5L787,528.5Z" style="fill:rgb(226,226,226);"/>
                    <path d="M668,1117L709.569,1117L740,1045L740,613L770.431,541L792,541" style="fill:none;stroke:rgb(226,226,226);stroke-width:8.33px;"/>
                </g>
            </g>
            <g transform="matrix(0.72973,0,0,0.744828,113.486486,160.882759)">
                <g transform="matrix(1,-0,-0,1,1763,-216)">
                    <path d="M693,553.5L668,541L693,528.5L693,553.5Z" style="fill:rgb(226,226,226);"/>
                    <path d="M812,1117L770.431,1117L770.431,869L709.491,778L709,541L688,541" style="fill:none;stroke:rgb(226,226,226);stroke-width:8.33px;"/>
                </g>
            </g>
            <g transform="matrix(0.72973,0,0,0.744828,80.648649,3.724138)">
                <g transform="matrix(33.333333,0,0,33.333333,2313.77474,1016.5)">
                </g>
                <text x="2267.225px" y="1016.5px" style="font-family:'Roboto-Bold', 'Roboto';font-weight:700;font-size:33.333px;fill:rgb(227,227,227);">NO</text>
            </g>
            <g transform="matrix(0.72973,0,0,0.744828,460.837838,3.724138)">
                <g transform="matrix(33.333333,0,0,33.333333,2305.604167,1016.5)">
                </g>
                <text x="2275.396px" y="1016.5px" style="font-family:'Roboto-Bold', 'Roboto';font-weight:700;font-size:33.333px;fill:rgb(227,227,227);">SI</text>
            </g>
            <g transform="matrix(0.72973,0,0,0.744828,596.567568,-163.862069)">
                <g transform="matrix(33.333333,0,0,33.333333,2313.77474,1016.5)">
                </g>
                <text x="2267.225px" y="1016.5px" style="font-family:'Roboto-Bold', 'Roboto';font-weight:700;font-size:33.333px;fill:rgb(227,227,227);">NO</text>
            </g>
            <g transform="matrix(0.72973,0,0,0.744828,444.783784,274.096552)">
                <text x="2300.551px" y="1009.969px" style="font-family:'Roboto-Bold', 'Roboto';font-weight:700;font-size:33.333px;fill:rgb(227,227,227);">SAL<tspan x="2361.131px " y="1009.969px ">U</tspan>D DE</text>
                <g transform="matrix(33.333333,0,0,33.333333,2481.899089,1049.03125)">
                </g>
                <text x="2272.101px" y="1049.031px" style="font-family:'Roboto-Bold', 'Roboto';font-weight:700;font-size:33.333px;fill:rgb(227,227,227);">JUGADOR A 0</text>
            </g>
            <g transform="matrix(0.72973,0,0,0.744828,-33.918919,274.096552)">
                <text x="2300.551px" y="1009.969px" style="font-family:'Roboto-Bold', 'Roboto';font-weight:700;font-size:33.333px;fill:rgb(227,227,227);">SAL<tspan x="2361.131px " y="1009.969px ">U</tspan>D DE</text>
                <g transform="matrix(33.333333,0,0,33.333333,2452.097656,1049.03125)">
                </g>
                <text x="2301.902px" y="1049.031px" style="font-family:'Roboto-Bold', 'Roboto';font-weight:700;font-size:33.333px;fill:rgb(227,227,227);">RIV<tspan x="2353.465px " y="1049.031px ">A</tspan>L A 0</text>
            </g>
            <g transform="matrix(-0.72973,0,0,0.744828,3767.608108,160.882759)">
                <g transform="matrix(-1,0,0,1,3244.5,-216)">
                    <path d="M356.5,528.5L381.5,541L356.5,553.5L356.5,528.5Z" style="fill:rgb(226,226,226);"/>
                    <path d="M381.5,829L264.5,829L264.5,541L361.5,541" style="fill:none;stroke:rgb(226,226,226);stroke-width:8.33px;"/>
                </g>
            </g>
            <g transform="matrix(-0.72973,0,0,0.744828,3767.608108,160.882759)">
                <g transform="matrix(-1,0,0,1,3244.5,-216)">
                    <path d="M571,1320.5L596,1333L571,1345.5L571,1320.5Z" style="fill:rgb(226,226,226);"/>
                    <path d="M381.5,829L264.5,829L264.5,1333L576,1333" style="fill:none;stroke:rgb(226,226,226);stroke-width:8.33px;"/>
                </g>
            </g>
            <g transform="matrix(0.72973,0,0,0.744828,-58.364865,-163.862069)">
                <g transform="matrix(33.333333,0,0,33.333333,2305.604167,1016.5)">
                </g>
                <text x="2275.396px" y="1016.5px" style="font-family:'Roboto-Bold', 'Roboto';font-weight:700;font-size:33.333px;fill:rgb(227,227,227);">SI</text>
            </g>
            <g transform="matrix(0.72973,0,0,0.744828,313.432432,57.351724)">
                <g transform="matrix(33.333333,0,0,33.333333,2305.604167,1016.5)">
                </g>
                <text x="2275.396px" y="1016.5px" style="font-family:'Roboto-Bold', 'Roboto';font-weight:700;font-size:33.333px;fill:rgb(227,227,227);">SI</text>
            </g>
            <g transform="matrix(0.72973,0,0,0.744828,233.891892,104.275862)">
                <g transform="matrix(33.333333,0,0,33.333333,2305.604167,1016.5)">
                </g>
                <text x="2275.396px" y="1016.5px" style="font-family:'Roboto-Bold', 'Roboto';font-weight:700;font-size:33.333px;fill:rgb(227,227,227);">SI</text>
            </g>
            <g transform="matrix(0.72973,0,0,0.744828,-33.918919,57.351724)">
                <g transform="matrix(33.333333,0,0,33.333333,2313.77474,1016.5)">
                </g>
                <text x="2267.225px" y="1016.5px" style="font-family:'Roboto-Bold', 'Roboto';font-weight:700;font-size:33.333px;fill:rgb(227,227,227);">NO</text>
            </g>
            <g transform="matrix(0.72973,0,0,0.744828,571.027027,57.351724)">
                <g transform="matrix(33.333333,0,0,33.333333,2313.77474,1016.5)">
                </g>
                <text x="2267.225px" y="1016.5px" style="font-family:'Roboto-Bold', 'Roboto';font-weight:700;font-size:33.333px;fill:rgb(227,227,227);">NO</text>
            </g>
            <g transform="matrix(0.72973,0,0,0.744828,606.054054,0)">
                <text x="1719.235px" y="101.969px" style="font-family:'Roboto-Bold', 'Roboto';font-weight:700;font-size:33.333px;fill:rgb(227,227,227);">COMIENZ<tspan x="1865.036px " y="101.969px ">O</tspan> DE</text>
                <g transform="matrix(33.333333,0,0,33.333333,1883.786133,141.03125)">
                </g>
                <text x="1772.214px" y="141.031px" style="font-family:'Roboto-Bold', 'Roboto';font-weight:700;font-size:33.333px;fill:rgb(227,227,227);">ROND<tspan x="1861.358px " y="141.031px ">A</tspan></text>
            </g>
            <g transform="matrix(0.72973,0,0,0.744828,606.054054,911.668966)">
                <g transform="matrix(33.333333,0,0,33.333333,1938.050456,121.5)">
                </g>
                <text x="1717.95px" y="121.5px" style="font-family:'Roboto-Bold', 'Roboto';font-weight:700;font-size:33.333px;fill:rgb(227,227,227);">FIN DE ROND<tspan x="1915.622px " y="121.5px ">A</tspan></text>
            </g>
            <g transform="matrix(0.72973,0,0,0.744828,606.054054,160.882759)">
                <g transform="matrix(33.333333,0,0,33.333333,1901.299154,121.5)">
                </g>
                <text x="1754.701px" y="121.5px" style="font-family:'Roboto-Bold', 'Roboto';font-weight:700;font-size:33.333px;fill:rgb(227,227,227);">NEUTRAL</text>
            </g>
            <g transform="matrix(0.72973,0,0,0.744828,448.432432,321.765517)">
                <text x="1752.178px" y="101.969px" style="font-family:'Roboto-Bold', 'Roboto';font-weight:700;font-size:33.333px;fill:rgb(227,227,227);">JUGADOR</text>
                <g transform="matrix(33.333333,0,0,33.333333,1880.734375,141.03125)">
                </g>
                <text x="1775.266px" y="141.031px" style="font-family:'Roboto-Bold', 'Roboto';font-weight:700;font-size:33.333px;fill:rgb(227,227,227);">A<tspan x="1795.741px 1814.41px 1836.496px " y="141.031px 141.031px 141.031px ">TAC</tspan>A</text>
            </g>
            <g transform="matrix(0.72973,0,0,0.744828,448.432432,750.786207)">
                <text x="1781.979px" y="82.437px" style="font-family:'Roboto-Bold', 'Roboto';font-weight:700;font-size:33.333px;fill:rgb(227,227,227);">RIV<tspan x="1833.542px " y="82.437px ">A</tspan>L</text>
                <text x="1707.207px" y="121.5px" style="font-family:'Roboto-Bold', 'Roboto';font-weight:700;font-size:33.333px;fill:rgb(227,227,227);">APRO<tspan x="1795.065px " y="121.5px ">V</tspan>ECH<tspan x="1881.263px " y="121.5px ">A</tspan> EL</text>
                <g transform="matrix(33.333333,0,0,33.333333,1875.81901,160.5625)">
                </g>
                <text x="1780.181px" y="160.562px" style="font-family:'Roboto-Bold', 'Roboto';font-weight:700;font-size:33.333px;fill:rgb(227,227,227);">F<tspan x="1795.318px " y="160.562px ">A</tspan>LL<tspan x="1852.805px " y="160.562px ">O</tspan></text>
            </g>
            <g transform="matrix(0.72973,0,0,0.744828,448.432432,482.648276)">
                <text x="1765.533px" y="173.969px" style="font-family:'Roboto-Bold', 'Roboto';font-weight:700;font-size:33.333px;fill:rgb(227,227,227);">A<tspan x="1786.008px 1804.676px 1826.763px " y="173.969px 173.969px 173.969px ">TAQ</tspan>UE</text>
                <g transform="matrix(33.333333,0,0,33.333333,1902.772135,213.03125)">
                </g>
                <text x="1753.228px" y="213.031px" style="font-family:'Roboto-Bold', 'Roboto';font-weight:700;font-size:33.333px;fill:rgb(227,227,227);">CONEC<tspan x="1861.675px 1880.344px " y="213.031px 213.031px ">TA</tspan></text>
            </g>
            <g transform="matrix(0.72973,0,0,0.744828,763.675676,482.648276)">
                <text x="1756.06px" y="173.969px" style="font-family:'Roboto-Bold', 'Roboto';font-weight:700;font-size:33.333px;fill:rgb(227,227,227);">DEFENSA</text>
                <g transform="matrix(33.333333,0,0,33.333333,1895.635091,213.03125)">
                </g>
                <text x="1760.365px" y="213.031px" style="font-family:'Roboto-Bold', 'Roboto';font-weight:700;font-size:33.333px;fill:rgb(227,227,227);">EXI<tspan x="1809.535px 1829.701px " y="213.031px 213.031px ">TO</tspan>SA</text>
            </g>
            <g transform="matrix(0.72973,0,0,0.744828,763.675676,321.765517)">
                <text x="1781.979px" y="101.969px" style="font-family:'Roboto-Bold', 'Roboto';font-weight:700;font-size:33.333px;fill:rgb(227,227,227);">RIV<tspan x="1833.542px " y="101.969px ">A</tspan>L</text>
                <g transform="matrix(33.333333,0,0,33.333333,1880.734375,141.03125)">
                </g>
                <text x="1775.266px" y="141.031px" style="font-family:'Roboto-Bold', 'Roboto';font-weight:700;font-size:33.333px;fill:rgb(227,227,227);">A<tspan x="1795.741px 1814.41px 1836.496px " y="141.031px 141.031px 141.031px ">TAC</tspan>A</text>
            </g>
            <g transform="matrix(0.72973,0,0,0.744828,763.675676,750.786207)">
                <text x="1752.178px" y="82.437px" style="font-family:'Roboto-Bold', 'Roboto';font-weight:700;font-size:33.333px;fill:rgb(227,227,227);">JUGADOR</text>
                <text x="1707.207px" y="121.5px" style="font-family:'Roboto-Bold', 'Roboto';font-weight:700;font-size:33.333px;fill:rgb(227,227,227);">APRO<tspan x="1795.065px " y="121.5px ">V</tspan>ECH<tspan x="1881.263px " y="121.5px ">A</tspan> EL</text>
                <g transform="matrix(33.333333,0,0,33.333333,1875.81901,160.5625)">
                </g>
                <text x="1780.181px" y="160.562px" style="font-family:'Roboto-Bold', 'Roboto';font-weight:700;font-size:33.333px;fill:rgb(227,227,227);">F<tspan x="1795.318px " y="160.562px ">A</tspan>LL<tspan x="1852.805px " y="160.562px ">O</tspan></text>
            </g>
        </g>
    </g>
</svg>
